<?xml version="1.0" encoding="utf-8"?>
<!-- Generator: Adobe Illustrator 21.0.0, SVG Export Plug-In . SVG Version: 6.00 Build 0)  -->
<svg version="1.1" id="图层_1" xmlns="http://www.w3.org/2000/svg" xmlns:xlink="http://www.w3.org/1999/xlink" x="0px" y="0px"
	 viewBox="0 0 200 111.3" style="enable-background:new 0 0 200 111.3;" xml:space="preserve">
<style type="text/css">
	.st0{fill:#CAF6CA;}
	.st1{fill:#6BB36B;}
	.st2{fill:#296629;}
</style>
<path class="st0" d="M196.9,81.3H3.1l25-78.2h143.8L196.9,81.3L196.9,81.3z"/>
<path class="st1" d="M3.1,78.2h193.8v28.1H3.1V78.2z"/>
<path class="st2" d="M193.8,109.4H6.3c-3.5,0-6.3-2.8-6.3-6.3V78.6c0-0.6,0.1-1.1,0.2-1.7L24.5,4.4c0.8-2.6,3.2-4.4,6-4.4h139.1
	c2.7,0,5.1,1.8,5.9,4.3l24.2,72.4c0.2,0.6,0.3,1.3,0.3,1.9v24.5C200.1,106.6,197.3,109.4,193.8,109.4L193.8,109.4z M30.5,6.3
	L6.3,78.7v24.4h187.6V78.7L169.7,6.3H30.5z"/>
<path class="st2" d="M34.4,92.2c0,2.6,2.1,4.7,4.7,4.7s4.7-2.1,4.7-4.7c0-2.6-2.1-4.7-4.7-4.7C36.5,87.5,34.4,89.6,34.4,92.2
	C34.4,92.2,34.4,92.2,34.4,92.2z"/>
<path class="st2" d="M126.1,60.6h-13.6c-4.5,0-8.6-2.6-10.5-6.8L90.7,28.7c-0.9-1.9-2.8-3.1-4.8-3.1H69.5c-1.7,0-3.1-1.4-3.1-3.1
	c0-1.7,1.4-3.1,3.1-3.1h16.2c4.5,0,8.6,2.6,10.5,6.7l11.7,25.2c0.9,1.9,2.8,3.1,4.8,3.1h13.4c1.7,0,3.1,1.4,3.1,3.1
	C129.2,59.2,127.8,60.6,126.1,60.6z"/>
<path class="st2" d="M126.1,69V46.1l11.4,11.4C137.5,57.5,126.1,69,126.1,69z M85.7,60.7H69.5c-1.7,0-3.1-1.4-3.1-3.1
	c0-1.7,1.4-3.1,3.1-3.1l0,0h16.2c2.1,0,4-1.2,4.8-3.1l11.6-25.2c1.9-4.1,5.9-6.7,10.4-6.7H126c1.7,0,3.1,1.4,3.1,3.1
	c0,1.7-1.4,3.1-3.1,3.1h-13.4c-2.1,0-4,1.2-4.8,3.1L96,54C94.2,58.1,90.1,60.7,85.7,60.7z"/>
<path class="st2" d="M126.1,13.1v18.8c0,0.5,0.4,0.8,0.8,0.8c0.2,0,0.4-0.1,0.6-0.2l10-9.9l-10-10c-0.3-0.3-0.9-0.3-1.2,0
	C126.2,12.7,126.1,12.9,126.1,13.1z M3.1,78.2h193.8v3.1H3.1V78.2z"/>
</svg>
