<?xml version="1.0" encoding="utf-8"?>
<!-- Generator: Adobe Illustrator 21.0.0, SVG Export Plug-In . SVG Version: 6.00 Build 0)  -->
<svg version="1.1" id="图层_1" xmlns="http://www.w3.org/2000/svg" xmlns:xlink="http://www.w3.org/1999/xlink" x="0px" y="0px"
	 viewBox="0 0 200 200" style="enable-background:new 0 0 200 200;" xml:space="preserve">
<style type="text/css">
	.st0{fill:#BC323C;}
	.st1{fill:#F6515D;}
	.st2{fill:#280000;}
	.st3{fill:#F4A60C;}
</style>
<path class="st0" d="M57.1,51.1c13,0,26.2,0,39.2,0c0,7.3,0,14.5-0.2,21.9c-13,0-26,0-39,0C57.1,65.6,57.1,58.3,57.1,51.1z"/>
<path class="st0" d="M100.9,51.1c13.8,0,27.7,0,41.4,0c0,7.3,0,14.7-0.2,21.9c-13.8,0.2-27.7-0.2-41.4-0.2
	C100.9,65.8,100.9,58.4,100.9,51.1z"/>
<path class="st0" d="M56.8,76.2c3.1,0,6.2,0,9.5,0c0,7.3,0,14.5,0,21.9c-3.1,0-6.3,0-9.5,0C56.8,90.8,56.8,83.6,56.8,76.2z"/>
<path class="st0" d="M70,76.7c13.6,0,27.1,0,40.7,0c0,7.3,0,14.5,0,21.9c-13.6,0-27.1,0-40.7,0C70,91.2,70,83.9,70,76.7z"/>
<path class="st0" d="M114.8,76.7c9.1,0,18.4,0,27.5,0c0,7.3,0,14.5,0,21.9c-9.1,0-18.4,0-27.5,0C114.6,91.4,114.8,84.1,114.8,76.7z"
	/>
<path class="st0" d="M57.1,102.2c13.2,0,26.3,0,39.5,0c0,7.3,0,14.5,0,21.9c-13.2,0-26.3,0-39.5,0C57.1,116.7,57.1,109.5,57.1,102.2
	z"/>
<path class="st0" d="M100.9,102.3c13.8-0.2,27.7,0.2,41.4,0.2c0,7.3,0,14.5,0,21.9c-13.8,0.2-27.5-0.2-41.3-0.2
	C100.9,116.9,100.9,109.5,100.9,102.3z"/>
<path class="st0" d="M57.1,126.7c4.8,0,9.5,0,14.5,0c0,7.3,0,14.5,0,21.9c-4.8,0-9.5,0-14.5,0C57.1,141.3,57.1,134,57.1,126.7z"/>
<path class="st0" d="M75.4,126.8c13.4-0.2,27,0.2,40.5,0.2c0,7.3,0,14.5-0.2,21.9c-13.4,0-26.9-0.2-40.5-0.2
	C75.4,141.3,75.4,134.2,75.4,126.8z"/>
<path class="st0" d="M119,127c7.8,0,15.3,0,23.1,0c0,7.3,0,14.5,0,21.9c-7.8,0-15.3,0-23.1,0C119,141.5,119,134.2,119,127z"/>
<path class="st0" d="M57.1,152.6c13.2,0,26.6,0,39.9,0c0,7.3,0,14.5,0,21.9c-13.4,0-26.6,0-39.9,0C57,167.1,57,159.8,57.1,152.6z"/>
<path class="st0" d="M101.2,152.6c13.8,0,27.3,0,41.1,0c0,7.3,0,14.5,0,21.9c-13.8,0-27.3,0-41.1,0C101,167.3,101,159.9,101.2,152.6
	z"/>
<path class="st1" d="M70.9,21.6c18.6,0.2,37.2-0.3,55.8-0.2c5.2,8.7,10.5,17.7,15.6,26.4c-28.4,0-56.7,0-85.2,0
	C61.7,39.1,66,30.2,70.9,21.6z"/>
<path class="st2" d="M144.6,177.5H55.4V48.2L70,20.1l57.5-0.2l17.1,28.3V177.5z M58.4,174.5h83.2V49l-15.8-26.1l-54,0.2L58.4,49
	V174.5z"/>
<rect x="57.1" y="47.8" class="st2" width="85.2" height="3.3"/>
<path class="st3" d="M121.6,152.6c-0.6-2.3-1.7-4.4-3.1-6.4c-0.1-0.1-0.2-0.2-0.3-0.3c0.6,3.7-0.1,7-2.6,10c-0.8,1-1.9,1.8-3.3,2.3
	c0.4-0.9,0.7-1.7,1-2.5c0.7-2.2,1-4.4,0.8-6.7c-0.6-6-3.3-11.2-7.6-15.9c-2.9-3.2-6.4-5.8-10.7-7.6c-1.9-0.8-3.9-1.3-6-1.5
	c-0.1,0-0.2-0.1-0.3-0.1h-1.2c1.2,0.9,2.4,1.6,3.5,2.6c2.4,2.2,3.8,4.8,4.5,7.7c1.1,4.6-0.3,8.7-3.6,12.4c-0.1,0.1-0.2,0.2-0.3,0.3
	c0.5-4.5-0.1-8.7-3.9-12.1c-0.1,0-0.1,0-0.2,0c0.1,0.5,0.2,1,0.3,1.6c0.5,2.7-0.3,5.1-2,7.3c-1.6,2-3.3,3.9-5,5.9
	c-1.8,2.1-3.1,4.3-3.6,6.9c-0.1,0.6-0.2,1.2-0.3,1.8v2.4c0.3,1.1,0.4,2.1,0.8,3.2c1.7,4.8,5.5,8.2,10.6,10.4c2.7,1.2,5.7,1.9,8.8,2
	c0.1,0,0.3,0.1,0.4,0.1h2.9c1.2-0.2,2.3-0.3,3.5-0.5c3.5-0.7,6.5-2.1,9.2-4.1c3.5-2.6,6-5.7,7.4-9.5c0.5-1.3,0.6-2.6,0.9-3.9
	c0-0.1,0.1-0.2,0.1-0.4v-2.5C121.9,154.4,121.8,153.5,121.6,152.6z M104.9,166.5c-1,2.8-3.5,4.2-6.8,4.3c-2.1,0.1-4-0.3-5.7-1.4
	c-1.8-1.2-2.5-2.8-2.3-4.6c0.2-1.8,1.3-3,3.2-3.8c1.7-0.8,3.3-1.7,4.2-3.2c0.8-1.2,1.2-2.6,1.3-4c0.1-0.9,0.2-1.8,0.2-2.7
	c0.1,0,0.1-0.1,0.2-0.1c0.7,0.6,1.4,1.1,2,1.8c2,2.3,3.2,4.9,3.9,7.7C105.5,162.4,105.6,164.5,104.9,166.5z"/>
</svg>
