<?xml version="1.0" standalone="no"?><!DOCTYPE svg PUBLIC "-//W3C//DTD SVG 1.1//EN" "http://www.w3.org/Graphics/SVG/1.1/DTD/svg11.dtd"><svg class="icon" width="200px" height="153.18px" viewBox="0 0 1337 1024" version="1.1" xmlns="http://www.w3.org/2000/svg"><path d="M1316.572682 543.346939H20.899213L188.082887 20.897959h961.306122l167.183673 522.44898z" fill="#CAF6CA" /><path d="M1316.572682 815.020408H20.899213l167.183674-522.448979h961.306122l167.183673 522.448979z" fill="#CAF6CA" /><path d="M20.899213 815.020408h1295.673469v188.081633H20.899213z" fill="#6BB36B" /><path d="M1295.674723 1024H41.797172a41.795918 41.795918 0 0 1-41.795918-41.795918v-164.25796a41.795918 41.795918 0 0 1 1.462857-11.284898l12.329796-36.571428a20.897959 20.897959 0 0 1 39.706122 13.165714L41.797172 818.99102V982.204082h1253.877551v-163.84l-12.747755-38.243266a20.897959 20.897959 0 0 1 12.747755-26.540408 20.897959 20.897959 0 0 1 26.540408 13.165714l12.747756 38.661225a39.079184 39.079184 0 0 1 2.089795 12.956735V982.204082A41.795918 41.795918 0 0 1 1295.674723 1024z" fill="#296629" /><path d="M261.225744 909.061224m-31.346939 0a31.346939 31.346939 0 1 0 62.693877 0 31.346939 31.346939 0 1 0-62.693877 0Z" fill="#296629" /><path d="M20.899213 815.020408h1295.673469v20.897959H20.899213z" fill="#296629" /><path d="M20.899213 522.44898h1295.673469v188.081632H20.899213z" fill="#6BB36B" /><path d="M1295.674723 731.428571H41.797172a41.795918 41.795918 0 0 1-41.795918-41.795918v-164.257959a41.795918 41.795918 0 0 1 1.462857-11.284898L164.050233 29.466122A41.795918 41.795918 0 0 1 203.965336 0h930.168163a41.795918 41.795918 0 0 1 39.706122 29.048163l161.541225 483.787755a39.079184 39.079184 0 0 1 2.089796 12.956735V689.632653a41.795918 41.795918 0 0 1-41.795919 41.795918zM203.965336 41.795918L41.797172 526.419592V689.632653h1253.877551v-163.84L1134.133499 41.795918z" fill="#296629" /><path d="M261.225744 616.489796m-31.346939 0a31.346939 31.346939 0 1 0 62.693877 0 31.346939 31.346939 0 1 0-62.693877 0Z" fill="#296629" /><path d="M843.024927 405.420408H752.327784a77.531429 77.531429 0 0 1-70.426122-45.139592L606.04207 191.843265a35.94449 35.94449 0 0 0-32.391837-20.897959h-109.087346a20.897959 20.897959 0 0 1 0-41.795918h108.042449a77.322449 77.322449 0 0 1 70.217142 44.930612l77.949388 168.646531a35.526531 35.526531 0 0 0 32.391837 20.897959h89.861224a20.897959 20.897959 0 0 1 0 41.795918z" fill="#296629" /><path d="M843.024927 461.00898v-152.973062L919.511458 384.522449l-76.486531 76.486531zM572.605336 405.838367h-108.042449a20.897959 20.897959 0 0 1 0-41.795918h108.042449a35.94449 35.94449 0 0 0 32.391836-20.897959l77.740408-168.646531A77.322449 77.322449 0 0 1 752.327784 129.776327h89.861225a20.897959 20.897959 0 0 1 0 41.795918H752.327784a35.526531 35.526531 0 0 0-32.391836 20.897959l-77.949388 168.646531a77.322449 77.322449 0 0 1-69.381224 44.721632z" fill="#296629" /><path d="M843.024927 87.771429v125.387755a5.642449 5.642449 0 0 0 9.613062 3.970612L919.511458 150.674286 852.637989 83.591837a5.642449 5.642449 0 0 0-9.613062 4.179592zM20.899213 522.44898h1295.673469v20.897959H20.899213z" fill="#296629" /></svg>