<?xml version="1.0" standalone="no"?><!DOCTYPE svg PUBLIC "-//W3C//DTD SVG 1.1//EN" "http://www.w3.org/Graphics/SVG/1.1/DTD/svg11.dtd"><svg class="icon" width="200px" height="200.00px" viewBox="0 0 1024 1024" version="1.1" xmlns="http://www.w3.org/2000/svg"><path d="M28.8 558.4h969.6c12.8 0 20.8-12.8 14.4-24l-160-340.8c-3.2-6.4-8-9.6-14.4-9.6H190.4c-6.4 0-12.8 3.2-14.4 9.6L12.8 534.4c-4.8 11.2 3.2 24 16 24z m672-158.4c0 49.6-60.8 67.2-100.8 67.2H464v32l-131.2-49.6 134.4-48v27.2h12.8c32 0 65.6 1.6 97.6 0 25.6-1.6 81.6-16 64-57.6-17.6-40-89.6-33.6-89.6-33.6h-131.2V310.4H560c57.6 0 140.8 17.6 140.8 89.6zM328 305.6c28.8-51.2 110.4-46.4 110.4-46.4h94.4v-16l100.8 27.2-99.2 27.2v-19.2h-91.2c-56-1.6-64 27.2-64 27.2-14.4 51.2 56 51.2 56 51.2l158.4 1.6v28.8h-176c-116.8-8-89.6-81.6-89.6-81.6zM998.4 595.2H25.6c-14.4 0-25.6 12.8-25.6 25.6v94.4h1022.4v-94.4c0-12.8-11.2-25.6-24-25.6zM0 824c0 14.4 11.2 25.6 25.6 25.6h971.2c14.4 0 25.6-11.2 25.6-25.6v-94.4H0v94.4z" fill="#494C59" /></svg>