<?xml version="1.0" standalone="no"?><!DOCTYPE svg PUBLIC "-//W3C//DTD SVG 1.1//EN" "http://www.w3.org/Graphics/SVG/1.1/DTD/svg11.dtd"><svg class="icon" width="200px" height="200.00px" viewBox="0 0 1024 1024" version="1.1" xmlns="http://www.w3.org/2000/svg"><path d="M202.24 847.36h87.04c12.8 0 23.04-10.24 23.04-23.04v-20.48c0-12.8-10.24-23.04-23.04-23.04H202.24c-12.8 0-23.04 10.24-23.04 23.04v20.48c0 12.8 10.24 23.04 23.04 23.04zM796.16 714.24c17.92 0 33.28-15.36 33.28-33.28 0-17.92-15.36-33.28-33.28-33.28-17.92 0-33.28 15.36-33.28 33.28 0 17.92 15.36 33.28 33.28 33.28zM796.16 847.36c17.92 0 33.28-15.36 33.28-33.28 0-17.92-15.36-33.28-33.28-33.28-17.92 0-33.28 15.36-33.28 33.28 0 17.92 15.36 33.28 33.28 33.28zM202.24 714.24h87.04c12.8 0 23.04-10.24 23.04-23.04v-20.48c0-12.8-10.24-23.04-23.04-23.04H202.24c-12.8 0-23.04 10.24-23.04 23.04v20.48c0 12.8 10.24 23.04 23.04 23.04zM483.84 847.36c17.92 0 33.28-15.36 33.28-33.28 0-17.92-15.36-33.28-33.28-33.28-17.92 0-33.28 15.36-33.28 33.28 0 17.92 15.36 33.28 33.28 33.28zM483.84 714.24c17.92 0 33.28-15.36 33.28-33.28 0-17.92-15.36-33.28-33.28-33.28-17.92 0-33.28 15.36-33.28 33.28 0 17.92 15.36 33.28 33.28 33.28z" fill="#0E72AF" /><path d="M640 847.36c17.92 0 33.28-15.36 33.28-33.28 0-17.92-15.36-33.28-33.28-33.28-17.92 0-33.28 15.36-33.28 33.28 0 17.92 15.36 33.28 33.28 33.28zM640 714.24c17.92 0 33.28-15.36 33.28-33.28 0-17.92-15.36-33.28-33.28-33.28-17.92 0-33.28 15.36-33.28 33.28 0 17.92 15.36 33.28 33.28 33.28z" fill="#0E72AF" /><path d="M975.36 581.12L908.8 74.24c-2.56-15.36-15.36-28.16-33.28-28.16H151.04c-15.36 0-30.72 12.8-33.28 28.16L46.08 581.12v358.4c0 20.48 17.92 38.4 38.4 38.4h855.04c20.48 0 38.4-17.92 38.4-38.4l-2.56-358.4zM478.72 115.2l-5.12 69.12h322.56v69.12H468.48l-5.12 71.68L256 217.6l222.72-102.4z m-227.84 253.44h327.68l2.56-79.36 220.16 110.08-227.84 115.2 2.56-71.68h-332.8l7.68-74.24z m660.48 542.72H112.64V581.12h796.16v330.24z" fill="#0E72AF" /></svg>