<?xml version="1.0" standalone="no"?><!DOCTYPE svg PUBLIC "-//W3C//DTD SVG 1.1//EN" "http://www.w3.org/Graphics/SVG/1.1/DTD/svg11.dtd"><svg class="icon" width="200px" height="143.42px" viewBox="0 0 1428 1024" version="1.1" xmlns="http://www.w3.org/2000/svg"><path d="M714.418605 23.813953C333.395349 23.813953 23.813953 173.127442 23.813953 357.209302v309.581396c0 184.08186 309.581395 333.395349 690.604652 333.395349s690.604651-149.313488 690.604651-333.395349V357.209302C1405.023256 173.127442 1095.44186 23.813953 714.418605 23.813953z" fill="#44AECF" /><path d="M714.418605 1024C313.867907 1024 0 867.066047 0 666.790698V357.209302C0 156.933953 313.867907 0 714.418605 0s714.418605 156.933953 714.418604 357.209302v309.581396c0 200.275349-313.867907 357.209302-714.418604 357.209302z m0-976.372093C352.922791 47.627907 47.627907 190.511628 47.627907 357.209302v309.581396c0 166.697674 305.294884 309.581395 666.790698 309.581395s666.790698-142.883721 666.790697-309.581395V357.209302C1381.209302 190.511628 1075.914419 47.627907 714.418605 47.627907z" fill="#0A4E66" /><path d="M23.813953 357.209302a690.604651 333.395349 0 1 0 1381.209303 0 690.604651 333.395349 0 1 0-1381.209303 0Z" fill="#A8E8FF" /><path d="M714.418605 702.511628C326.965581 702.511628 11.906977 547.72093 11.906977 357.209302S326.965581 11.906977 714.418605 11.906977 1416.930233 166.697674 1416.930233 357.209302 1101.871628 702.511628 714.418605 702.511628z m0-666.790698C340.301395 35.72093 35.72093 180.033488 35.72093 357.209302S340.301395 678.697674 714.418605 678.697674 1393.116279 534.385116 1393.116279 357.209302 1088.535814 35.72093 714.418605 35.72093z" fill="#0A4E66" /><path d="M525.097674 251.713488l-55.248372 37.626047c-12.145116 8.334884-3.572093 22.623256 13.573954 22.623256h164.554418c10.47814 0 19.051163-5.953488 19.051163-13.335814V185.986977c0-11.668837-20.48-17.622326-32.625116-9.287442L579.155349 214.325581l-108.353489-74.061395a51.43814 51.43814 0 0 0-54.057674 0 20.956279 20.956279 0 0 0 0 37.149767zM1012.807442 511.76186L904.930233 437.462326l55.010232-37.864186c12.145116-8.334884 3.572093-22.385116-13.573953-22.385117h-164.316279c-10.716279 0-19.289302 5.715349-19.289303 13.097675v112.878139c0 11.668837 20.71814 17.384186 32.863256 9.287442l55.010233-37.864186 108.353488 74.299535a51.914419 51.914419 0 0 0 54.295814 0 20.956279 20.956279 0 0 0-0.476279-37.149768zM822.057674 307.914419l108.353489-74.299535 55.248372 37.864186c12.145116 8.334884 32.625116 2.381395 32.625116-9.287442V149.551628c0-7.382326-8.573023-13.097674-19.051163-13.097675h-164.554418c-16.907907 0-25.48093 14.050233-13.573954 22.385117l55.248372 37.626046-108.353488 74.299535a20.956279 20.956279 0 0 0 0 37.149768 50.485581 50.485581 0 0 0 54.057674 0zM606.303256 381.023256l-108.353489 74.299535-55.248372-37.864186c-11.906977-8.334884-32.625116-2.381395-32.625116 9.287442v112.878139c0 7.144186 8.573023 13.097674 19.051163 13.097674h164.554418c17.146047 0 25.71907-14.288372 13.573954-22.385116l-55.010233-37.864186 108.353489-74.299535a20.956279 20.956279 0 0 0 0-37.149767 51.914419 51.914419 0 0 0-54.295814 0z" fill="#0A4E66" /></svg>