<?xml version="1.0" standalone="no"?><!DOCTYPE svg PUBLIC "-//W3C//DTD SVG 1.1//EN" "http://www.w3.org/Graphics/SVG/1.1/DTD/svg11.dtd"><svg class="icon" width="200px" height="137.54px" viewBox="0 0 1489 1024" version="1.1" xmlns="http://www.w3.org/2000/svg"><path d="M1465.921284 612.429336c0-128.209941-111.456555-234.31472-258.048683-255.954509C1186.698182 169.395348 997.989903 23.268592 767.86353 23.268592c-186.148734 0-347.16739 97.030028-411.621389 232.685918C169.162662 273.173268 23.268592 404.408126 23.268592 564.030665v127.511884C23.268592 862.101327 189.871709 1000.549448 395.566061 1000.549448h767.863529c162.880143-5.11909 295.743802-114.481472 302.491694-250.602734v-137.517378z" fill="#FFFFFF" /><path d="M1163.42959 1023.81804H395.566061C177.539356 1023.81804 0 874.666366 0 691.542549v-127.511884c0-167.068489 145.661385-306.68004 341.117556-329.017888C415.111678 93.074367 581.714795 0 767.86353 0c234.547405 0 429.072833 143.334526 460.718118 335.998466C1380.525552 365.782263 1489.189876 479.565677 1489.189876 612.429336v137.052006a29.318426 29.318426 0 0 1 0 6.28252c-10.703552 144.032583-149.384359 260.142856-320.408509 268.054178a19.778303 19.778303 0 0 1-5.351777 0zM767.86353 46.537184c-171.489522 0-328.31983 88.420649-390.446971 220.120878a23.268592 23.268592 0 0 1-19.080245 13.263097C180.564272 295.511116 46.537184 418.834653 46.537184 564.030665v127.511884C46.537184 849.070915 203.134806 977.280856 395.566061 977.280856h767.863529c151.245847-4.653718 273.871326-104.941349 279.223102-228.497572a26.293509 26.293509 0 0 1 0-4.188346v-132.165602c0-114.481472-100.287631-212.674929-238.27038-232.685918a23.268592 23.268592 0 0 1-19.778303-20.47636C1164.825706 180.796958 985.657549 46.537184 767.86353 46.537184z" fill="#007FB7" /><path d="M395.566061 988.915152c-198.94646 0-360.663173-133.561717-360.663173-297.372603V674.789162c53.983133 123.788908 195.688857 209.417326 360.663173 209.417327h767.863529a325.760285 325.760285 0 0 0 290.857398-172.885637v37.229747c-5.584462 129.606056-133.329031 234.780091-290.624712 239.666495H395.566061z" fill="#D1EBF2" /><path d="M48.864043 725.049321c67.478916 103.079862 198.015716 171.489522 346.702018 171.489521h767.863529a339.488754 339.488754 0 0 0 277.826987-137.982749c-11.168924 118.902504-131.467544 214.303731-279.223102 218.724763H395.566061C216.863276 977.280856 69.805775 866.755045 48.864043 725.049321M23.268592 568.684384v122.858165C23.268592 862.101327 189.871709 1000.549448 395.566061 1000.549448h767.863529c162.880143-5.11909 295.743802-114.481472 302.491694-250.602734v-127.744569c-6.049834 136.586634-142.636468 251.068106-302.491694 251.068106H395.566061c-192.66394 0-351.355736-121.694735-370.435982-277.594301 0-4.421032-1.628801-23.268592-1.861487-26.991566z" fill="#007FB7" /><path d="M48.864043 725.049321c67.478916 103.079862 198.015716 171.489522 346.702018 171.489521h767.863529a339.488754 339.488754 0 0 0 277.826987-137.982749c-11.168924 118.902504-131.467544 214.303731-279.223102 218.724763H395.566061C216.863276 977.280856 69.805775 866.755045 48.864043 725.049321M23.268592 568.684384v122.858165C23.268592 862.101327 189.871709 1000.549448 395.566061 1000.549448h767.863529c162.880143-5.11909 295.743802-114.481472 302.491694-250.602734v-127.744569c-6.049834 136.586634-142.636468 251.068106-302.491694 251.068106H395.566061c-192.66394 0-351.355736-121.694735-370.435982-277.594301 0-4.421032-1.628801-23.268592-1.861487-26.991566z" fill="#007FB7" /></svg>