<?xml version="1.0" encoding="utf-8"?>
<!-- Generator: Adobe Illustrator 21.0.0, SVG Export Plug-In . SVG Version: 6.00 Build 0)  -->
<svg version="1.1" id="图层_1" xmlns="http://www.w3.org/2000/svg" xmlns:xlink="http://www.w3.org/1999/xlink" x="0px" y="0px"
	 viewBox="0 0 200 137.5" style="enable-background:new 0 0 200 137.5;" xml:space="preserve">
<style type="text/css">
	.st0{fill:#B4E9FD;}
	.st1{fill:#007FB7;}
	.st2{fill:#DEEAFC;}
</style>
<path class="st0" d="M196.9,82.3c0-17.2-15-31.5-34.7-34.4C159.4,22.8,134,3.1,103.1,3.1c-25,0-46.6,13-55.3,31.3
	C22.7,36.7,3.1,54.3,3.1,75.8v17.1c0,22.9,22.4,41.5,50,41.5h103.1c21.9-0.7,39.7-15.4,40.6-33.7V82.3z"/>
<path class="st1" d="M156.2,137.5H53.1c-29.3,0-53.1-20-53.1-44.6V75.8c0-22.4,19.6-41.2,45.8-44.2C55.7,12.5,78.1,0,103.1,0
	c31.5,0,57.6,19.3,61.9,45.1c20.4,4,35,19.3,35,37.1v18.4c0,0.3,0,0.6,0,0.8c-1.4,19.3-20.1,34.9-43,36
	C156.7,137.5,156.5,137.5,156.2,137.5L156.2,137.5z M103.1,6.3c-23,0-44.1,11.9-52.4,29.6c-0.5,1-1.5,1.7-2.6,1.8
	C24.2,39.7,6.2,56.3,6.2,75.8v17.1c0,21.2,21,38.4,46.9,38.4h103.1c20.3-0.6,36.8-14.1,37.5-30.7c0-0.2,0-0.4,0-0.6V82.3
	c0-15.4-13.5-28.6-32-31.3c-1.4-0.2-2.5-1.3-2.7-2.8C156.4,24.3,132.4,6.3,103.1,6.3z"/>
<path class="st2" d="M53.1,132.8c-26.7,0-48.4-17.9-48.4-39.9v-2.3c7.3,16.6,26.3,28.1,48.4,28.1h103.1c16.3,0.2,31.4-8.8,39.1-23.2
	v5c-0.8,17.4-17.9,31.5-39,32.2L53.1,132.8L53.1,132.8z"/>
<path class="st1" d="M6.6,97.4c9.1,13.8,26.6,23,46.6,23h103.1c14.7,0.2,28.6-6.7,37.3-18.5c-1.5,16-17.7,28.8-37.5,29.4H53.1
	C29.1,131.3,9.4,116.4,6.6,97.4 M3.1,76.4v16.5c0,22.9,22.4,41.5,50,41.5h103.1c21.9-0.7,39.7-15.4,40.6-33.7V83.6
	c-0.8,18.3-19.2,33.7-40.6,33.7H53.1c-25.9,0-47.2-16.3-49.8-37.3C3.4,79.4,3.1,76.9,3.1,76.4z"/>
<path class="st1" d="M6.6,97.4c9.1,13.8,26.6,23,46.6,23h103.1c14.7,0.2,28.6-6.7,37.3-18.5c-1.5,16-17.7,28.8-37.5,29.4H53.1
	C29.1,131.3,9.4,116.4,6.6,97.4 M3.1,76.4v16.5c0,22.9,22.4,41.5,50,41.5h103.1c21.9-0.7,39.7-15.4,40.6-33.7V83.6
	c-0.8,18.3-19.2,33.7-40.6,33.7H53.1c-25.9,0-47.2-16.3-49.8-37.3C3.4,79.4,3.1,76.9,3.1,76.4z"/>
</svg>
